<svg xmlns="http://www.w3.org/2000/svg" viewBox="0 0 180 180" width="180" height="180">
  <defs>
    <linearGradient id="gradientLarge" x1="0%" y1="0%" x2="100%" y2="100%">
      <stop offset="0%" style="stop-color:#6366f1;stop-opacity:1" />
      <stop offset="50%" style="stop-color:#7c3aed;stop-opacity:1" />
      <stop offset="100%" style="stop-color:#8b5cf6;stop-opacity:1" />
    </linearGradient>
    <radialGradient id="centerGradient" cx="50%" cy="50%" r="50%">
      <stop offset="0%" style="stop-color:#ffffff;stop-opacity:1" />
      <stop offset="70%" style="stop-color:#f3f4f6;stop-opacity:0.9" />
      <stop offset="100%" style="stop-color:#6366f1;stop-opacity:0.3" />
    </radialGradient>
  </defs>
  
  <!-- Background circle -->
  <circle cx="90" cy="90" r="85" fill="url(#gradientLarge)"/>
  
  <!-- Lotus petals - more detailed for large size -->
  <path d="M90 25c-15 0-25 10-25 25 0 10 5 15 10 20-5-5-15-10-25-10-15 0-25 10-25 25s10 25 25 25c10 0 20-5 25-10-5 5-10 10-10 20 0 15 10 25 25 25s25-10 25-25c0-10-5-15-10-20 5 5 15 10 25 10 15 0 25-10 25-25s-10-25-25-25c-10 0-20 5-25 10 5-5 10-10 10-20 0-15-10-25-25-25z" fill="white" opacity="0.2"/>
  
  <!-- Inner lotus -->
  <path d="M90 35c-10 0-18 8-18 18 0 7 3 12 7 15-3-3-10-7-18-7-10 0-18 8-18 18s8 18 18 18c7 0 13-3 18-7-3 3-7 7-7 15 0 10 8 18 18 18s18-8 18-18c0-7-3-12-7-15 3 3 10 7 18 7 10 0 18-8 18-18s-8-18-18-18c-7 0-13 3-18 7 3-3 7-7 7-15 0-10-8-18-18-18z" fill="white" opacity="0.3"/>
  
  <!-- Center meditation symbol -->
  <circle cx="90" cy="90" r="20" fill="url(#centerGradient)"/>
  <circle cx="90" cy="90" r="12" fill="white" opacity="0.95"/>
  <circle cx="90" cy="90" r="6" fill="url(#gradientLarge)" opacity="0.8"/>
  <circle cx="90" cy="90" r="3" fill="white"/>
</svg>
