<svg xmlns="http://www.w3.org/2000/svg" viewBox="0 0 16 16" width="16" height="16">
  <defs>
    <linearGradient id="gradientSmall" x1="0%" y1="0%" x2="100%" y2="100%">
      <stop offset="0%" style="stop-color:#6366f1;stop-opacity:1" />
      <stop offset="100%" style="stop-color:#8b5cf6;stop-opacity:1" />
    </linearGradient>
  </defs>
  
  <!-- Simplified lotus for small size -->
  <path d="M8 2c-1.5 0-2.5 1-2.5 2.5 0 1 0.5 1.5 1 2-0.5-0.5-1.5-1-2.5-1-1.5 0-2.5 1-2.5 2.5s1 2.5 2.5 2.5c1 0 2-0.5 2.5-1-0.5 0.5-1 1-1 2 0 1.5 1 2.5 2.5 2.5s2.5-1 2.5-2.5c0-1-0.5-1.5-1-2 0.5 0.5 1.5 1 2.5 1 1.5 0 2.5-1 2.5-2.5s-1-2.5-2.5-2.5c-1 0-2 0.5-2.5 1 0.5-0.5 1-1 1-2 0-1.5-1-2.5-2.5-2.5z" fill="url(#gradientSmall)" opacity="0.9"/>
  
  <!-- Center point -->
  <circle cx="8" cy="8" r="1.5" fill="url(#gradientSmall)"/>
  <circle cx="8" cy="8" r="0.7" fill="white" opacity="0.9"/>
</svg>
