<svg xmlns="http://www.w3.org/2000/svg" viewBox="0 0 32 32" width="32" height="32">
  <defs>
    <linearGradient id="gradient" x1="0%" y1="0%" x2="100%" y2="100%">
      <stop offset="0%" style="stop-color:#6366f1;stop-opacity:1" />
      <stop offset="100%" style="stop-color:#8b5cf6;stop-opacity:1" />
    </linearGradient>
  </defs>
  
  <!-- Lotus petals -->
  <path d="M16 4c-3 0-5 2-5 5 0 2 1 3 2 4-1-1-3-2-5-2-3 0-5 2-5 5s2 5 5 5c2 0 4-1 5-2-1 1-2 2-2 4 0 3 2 5 5 5s5-2 5-5c0-2-1-3-2-4 1 1 3 2 5 2 3 0 5-2 5-5s-2-5-5-5c-2 0-4 1-5 2 1-1 2-2 2-4 0-3-2-5-5-5z" fill="url(#gradient)" opacity="0.8"/>
  
  <!-- Center circle (meditation point) -->
  <circle cx="16" cy="16" r="3" fill="url(#gradient)"/>
  
  <!-- Inner peace symbol -->
  <circle cx="16" cy="16" r="1.5" fill="white" opacity="0.9"/>
</svg>
